<svg width="257" height="56" viewBox="0 0 257 56" fill="none" xmlns="http://www.w3.org/2000/svg">
<path fill-rule="evenodd" clip-rule="evenodd" d="M67.4385 43.4948C67.4595 43.5042 67.4806 43.5135 67.5013 43.5247L67.5035 43.5138C67.4837 43.5072 67.4643 43.4998 67.4446 43.4923C67.4252 43.4848 67.4056 43.4772 67.3855 43.4701C67.403 43.4791 67.4207 43.487 67.4385 43.4948ZM47.2746 10.1639C41.1605 6.90455 33.781 6.03879 26.6703 8.34983C12.786 12.8624 5.19066 27.7744 9.70217 41.6565C10.6832 44.6755 12.156 47.3972 14.003 49.7617C8.17877 46.657 3.50263 41.3801 1.30119 34.6067C-3.21032 20.7256 4.38612 5.8126 18.2694 1.30109C29.1334 -2.22929 40.6273 1.65529 47.2746 10.1639Z" fill="#E78200"/>
<path fill-rule="evenodd" clip-rule="evenodd" d="M71.9296 50.8833C71.946 50.8907 71.9626 50.8982 71.9789 50.9069L71.98 50.8982C71.9644 50.8932 71.949 50.887 71.9333 50.8807C71.9184 50.8747 71.9031 50.8686 71.8871 50.8632C71.9009 50.8704 71.9152 50.8768 71.9296 50.8833ZM55.992 24.534C51.1605 21.9593 45.329 21.2754 39.7097 23.1C28.7343 26.6637 22.7306 38.4503 26.2943 49.4235C27.0699 51.8111 28.2345 53.9635 29.6952 55.8333C25.0902 53.379 21.3934 49.2069 19.6544 43.8516C16.0896 32.8795 22.0944 21.0919 33.0687 17.5281C41.6556 14.7397 50.7391 17.81 55.992 24.534Z" fill="#E78200"/>
<path fill-rule="evenodd" clip-rule="evenodd" d="M67.8456 50.9462C67.8557 50.9506 67.866 50.955 67.8763 50.9605V50.955L67.8216 50.9353C67.8294 50.9392 67.8375 50.9427 67.8456 50.9462ZM58.245 35.0768C55.3336 33.5251 51.8197 33.113 48.4342 34.2131C41.8238 36.3612 38.2076 43.4625 40.3557 50.0718C40.8228 51.5091 41.524 52.8048 42.4033 53.9305C39.6305 52.4525 37.4042 49.9403 36.3558 46.7157C34.2077 40.1064 37.8239 33.0052 44.4343 30.8571C49.6072 29.1762 55.08 31.0257 58.245 35.0768Z" fill="#E78200"/>
<path d="M54.776 51.9328C56.9387 51.9328 58.692 50.1796 58.692 48.0168C58.692 45.8541 56.9387 44.1008 54.776 44.1008C52.6132 44.1008 50.86 45.8541 50.86 48.0168C50.86 50.1796 52.6132 51.9328 54.776 51.9328Z" fill="#E78200"/>
<path d="M90.0469 37.2734C90.0469 36.1016 89.6016 35.1953 88.7109 34.5547C87.8359 33.8984 86.2969 33.3359 84.0938 32.8672C81.9062 32.3984 80.1641 31.8359 78.8672 31.1797C77.5859 30.5234 76.6328 29.7422 76.0078 28.8359C75.3984 27.9297 75.0938 26.8516 75.0938 25.6016C75.0938 23.5234 75.9688 21.7656 77.7188 20.3281C79.4844 18.8906 81.7344 18.1719 84.4688 18.1719C87.3438 18.1719 89.6719 18.9141 91.4531 20.3984C93.25 21.8828 94.1484 23.7812 94.1484 26.0938H89.7891C89.7891 24.9062 89.2812 23.8828 88.2656 23.0234C87.2656 22.1641 86 21.7344 84.4688 21.7344C82.8906 21.7344 81.6562 22.0781 80.7656 22.7656C79.875 23.4531 79.4297 24.3516 79.4297 25.4609C79.4297 26.5078 79.8438 27.2969 80.6719 27.8281C81.5 28.3594 82.9922 28.8672 85.1484 29.3516C87.3203 29.8359 89.0781 30.4141 90.4219 31.0859C91.7656 31.7578 92.7578 32.5703 93.3984 33.5234C94.0547 34.4609 94.3828 35.6094 94.3828 36.9688C94.3828 39.2344 93.4766 41.0547 91.6641 42.4297C89.8516 43.7891 87.5 44.4688 84.6094 44.4688C82.5781 44.4688 80.7812 44.1094 79.2188 43.3906C77.6562 42.6719 76.4297 41.6719 75.5391 40.3906C74.6641 39.0938 74.2266 37.6953 74.2266 36.1953H78.5625C78.6406 37.6484 79.2188 38.8047 80.2969 39.6641C81.3906 40.5078 82.8281 40.9297 84.6094 40.9297C86.25 40.9297 87.5625 40.6016 88.5469 39.9453C89.5469 39.2734 90.0469 38.3828 90.0469 37.2734ZM115.688 41.4922C114 43.4766 111.523 44.4688 108.258 44.4688C105.555 44.4688 103.492 43.6875 102.07 42.125C100.664 40.5469 99.9531 38.2188 99.9375 35.1406V18.6406H104.273V35.0234C104.273 38.8672 105.836 40.7891 108.961 40.7891C112.273 40.7891 114.477 39.5547 115.57 37.0859V18.6406H119.906V44H115.781L115.688 41.4922ZM130.594 18.6406L130.711 21.4531C132.57 19.2656 135.078 18.1719 138.234 18.1719C141.781 18.1719 144.195 19.5312 145.477 22.25C146.32 21.0312 147.414 20.0469 148.758 19.2969C150.117 18.5469 151.719 18.1719 153.562 18.1719C159.125 18.1719 161.953 21.1172 162.047 27.0078V44H157.711V27.2656C157.711 25.4531 157.297 24.1016 156.469 23.2109C155.641 22.3047 154.25 21.8516 152.297 21.8516C150.688 21.8516 149.352 22.3359 148.289 23.3047C147.227 24.2578 146.609 25.5469 146.438 27.1719V44H142.078V27.3828C142.078 23.6953 140.273 21.8516 136.664 21.8516C133.82 21.8516 131.875 23.0625 130.828 25.4844V44H126.492V18.6406H130.594ZM172.688 18.6406L172.805 21.4531C174.664 19.2656 177.172 18.1719 180.328 18.1719C183.875 18.1719 186.289 19.5312 187.57 22.25C188.414 21.0312 189.508 20.0469 190.852 19.2969C192.211 18.5469 193.812 18.1719 195.656 18.1719C201.219 18.1719 204.047 21.1172 204.141 27.0078V44H199.805V27.2656C199.805 25.4531 199.391 24.1016 198.562 23.2109C197.734 22.3047 196.344 21.8516 194.391 21.8516C192.781 21.8516 191.445 22.3359 190.383 23.3047C189.32 24.2578 188.703 25.5469 188.531 27.1719V44H184.172V27.3828C184.172 23.6953 182.367 21.8516 178.758 21.8516C175.914 21.8516 173.969 23.0625 172.922 25.4844V44H168.586V18.6406H172.688ZM226.359 44C226.109 43.5 225.906 42.6094 225.75 41.3281C223.734 43.4219 221.328 44.4688 218.531 44.4688C216.031 44.4688 213.977 43.7656 212.367 42.3594C210.773 40.9375 209.977 39.1406 209.977 36.9688C209.977 34.3281 210.977 32.2812 212.977 30.8281C214.992 29.3594 217.82 28.625 221.461 28.625H225.68V26.6328C225.68 25.1172 225.227 23.9141 224.32 23.0234C223.414 22.1172 222.078 21.6641 220.312 21.6641C218.766 21.6641 217.469 22.0547 216.422 22.8359C215.375 23.6172 214.852 24.5625 214.852 25.6719H210.492C210.492 24.4062 210.938 23.1875 211.828 22.0156C212.734 20.8281 213.953 19.8906 215.484 19.2031C217.031 18.5156 218.727 18.1719 220.57 18.1719C223.492 18.1719 225.781 18.9062 227.438 20.375C229.094 21.8281 229.953 23.8359 230.016 26.3984V38.0703C230.016 40.3984 230.312 42.25 230.906 43.625V44H226.359ZM219.164 40.6953C220.523 40.6953 221.812 40.3438 223.031 39.6406C224.25 38.9375 225.133 38.0234 225.68 36.8984V31.6953H222.281C216.969 31.6953 214.312 33.25 214.312 36.3594C214.312 37.7188 214.766 38.7812 215.672 39.5469C216.578 40.3125 217.742 40.6953 219.164 40.6953ZM241.523 44H237.188V18.6406H241.523V44ZM236.836 11.9141C236.836 11.2109 237.047 10.6172 237.469 10.1328C237.906 9.64844 238.547 9.40625 239.391 9.40625C240.234 9.40625 240.875 9.64844 241.312 10.1328C241.75 10.6172 241.969 11.2109 241.969 11.9141C241.969 12.6172 241.75 13.2031 241.312 13.6719C240.875 14.1406 240.234 14.375 239.391 14.375C238.547 14.375 237.906 14.1406 237.469 13.6719C237.047 13.2031 236.836 12.6172 236.836 11.9141ZM253.195 44H248.859V8H253.195V44Z" fill="#111827"/>
</svg>
