<svg xmlns="http://www.w3.org/2000/svg" class="fl-svgdocument" overflow="visible" viewBox="56.63 180.23 407.37 149.08"><defs transform="matrix(1.08647 0 0 1.08647 -17.407 -22.139)"><linearGradient id="a" x1="0" y1=".5" x2="1" y2=".5"><stop offset="0%" stop-color="#e78200"/><stop offset="100%" stop-color="#e83200"/></linearGradient></defs><g transform="translate(25.786 -98.941) scale(1.38648)"><path fill-rule="evenodd" clip-rule="evenodd" d="M118.553 288.796c-.052-.04-.107-.069-.159-.105.057.03.11.062.165.088-.001.007-.005.01-.006.017zm-26.225-5.079c-2.562.643-4.935 1.628-7.153 2.83-4.79 3.601-10.452 6.185-16.76 7.297-21.392 3.773-41.79-10.509-45.563-31.902-3.772-21.39 10.51-41.79 31.903-45.563s41.79 10.513 45.563 31.902c.578 3.28.684 6.526.453 9.704l.125.073c-.245 3.279-.042 6.64.802 10.004 1.918 7.645 6.487 13.907 12.466 18.112-6.526-3.286-14.191-4.376-21.836-2.457z" fill="#e78200"/><path fill-rule="evenodd" clip-rule="evenodd" d="M97.943 268.84c-.035-.019-.071-.032-.106-.05.037.013.072.028.108.04l-.002.01zm-16.4-.847c-1.504.61-2.865 1.413-4.112 2.334a24.034 24.034 0 01-9.578 5.878c-12.7 4.127-26.34-2.822-30.468-15.523-4.127-12.698 2.822-26.34 15.522-30.467s26.341 2.823 30.468 15.522c.633 1.947.975 3.914 1.106 5.868l.082.034c.132 2.017.543 4.046 1.345 6.022 1.821 4.49 5.14 7.911 9.138 9.959-4.253-1.442-9.013-1.45-13.503.373z" fill="#fff"/><path fill-rule="evenodd" clip-rule="evenodd" d="M105.627 275.289c-.035-.02-.07-.033-.105-.05.037.013.072.028.108.04l-.003.01zm-16.399-.847c-1.505.61-2.865 1.413-4.113 2.334a24.034 24.034 0 01-9.578 5.877c-12.7 4.127-26.34-2.822-30.467-15.522-4.127-12.699 2.821-26.34 15.522-30.468s26.34 2.824 30.467 15.522c.633 1.948.975 3.915 1.107 5.869l.082.034c.131 2.016.543 4.045 1.345 6.021 1.821 4.49 5.139 7.911 9.138 9.96-4.254-1.443-9.013-1.45-13.503.373z" fill="#e78200"/><path fill-rule="evenodd" clip-rule="evenodd" d="M102.039 275.593c-.028-.015-.057-.026-.084-.04.03.01.057.023.085.032l-.001.008zm-12.963-.671a14.905 14.905 0 00-3.25 1.844 18.997 18.997 0 01-7.572 4.645c-10.039 3.261-20.82-2.233-24.08-12.272-3.261-10.037 2.232-20.82 12.271-24.08s20.82 2.234 24.08 12.271c.5 1.54.771 3.094.875 4.639l.065.027c.104 1.594.428 3.197 1.062 4.76a15.262 15.262 0 007.222 7.872c-3.362-1.14-7.124-1.147-10.673.294z" fill="#fff"/><path fill-rule="evenodd" clip-rule="evenodd" d="M108.113 280.69c-.028-.015-.056-.026-.083-.04.029.01.057.022.085.031l-.002.009zm-12.962-.671a14.905 14.905 0 00-3.251 1.844 18.997 18.997 0 01-7.571 4.645c-10.04 3.26-20.82-2.233-24.081-12.272-3.26-10.038 2.232-20.82 12.272-24.08s20.82 2.234 24.08 12.271c.5 1.54.77 3.094.874 4.639l.065.026c.104 1.595.429 3.198 1.063 4.76a15.262 15.262 0 007.222 7.873c-3.362-1.14-7.124-1.147-10.673.294z" fill="#e78200"/><path fill-rule="evenodd" clip-rule="evenodd" d="M98.286 275.642c-.017-.009-.034-.015-.05-.023l.05.018v.005zm-7.809-.403a8.978 8.978 0 00-1.958 1.112 11.443 11.443 0 01-4.56 2.798c-6.047 1.965-12.541-1.343-14.507-7.39-1.965-6.046 1.343-12.542 7.39-14.507s12.542 1.344 14.507 7.39c.301.928.464 1.864.527 2.794l.039.017a9.17 9.17 0 00.64 2.867 9.194 9.194 0 004.352 4.741 9.18 9.18 0 00-6.43.178z" fill="#fff"/><path fill-rule="evenodd" clip-rule="evenodd" d="M101.945 278.712c-.017-.009-.034-.015-.05-.023l.05.018v.005zm-7.809-.403a8.978 8.978 0 00-1.958 1.112 11.443 11.443 0 01-4.56 2.798c-6.047 1.965-12.542-1.343-14.507-7.39-1.965-6.046 1.343-12.542 7.39-14.507s12.542 1.344 14.507 7.39c.301.928.464 1.864.527 2.794l.039.017a9.17 9.17 0 00.64 2.867 9.194 9.194 0 004.352 4.741 9.18 9.18 0 00-6.43.178z" fill="#e78200"/><circle cx="88.385" cy="88.385" r="88.385" fill="#fff" transform="matrix(.04053 0 0 .04053 82.72 269.367)"/></g><path font-size="100" letter-spacing="0" font-family="Open Sans" transform="translate(189.754 272.592) scale(.68578)" fill="url('#a')" d="M50.1-18.99q0 9.42-6.84 14.69Q36.43.98 24.71.98q-12.7 0-19.53-3.27v-8.01q4.39 1.85 9.57 2.93Q19.92-6.3 25-6.3q8.3 0 12.5-3.15 4.2-3.15 4.2-8.76 0-3.71-1.49-6.08t-4.98-4.37q-3.49-2-10.62-4.54-9.96-3.57-14.23-8.45Q6.1-46.53 6.1-54.39q0-8.26 6.2-13.14 6.21-4.88 16.41-4.88 10.65 0 19.58 3.9l-2.59 7.23q-8.83-3.71-17.18-3.71-6.6 0-10.31 2.83-3.71 2.83-3.71 7.86 0 3.71 1.37 6.08t4.61 4.35q3.25 1.98 9.94 4.37 11.23 4 15.45 8.59 4.23 4.59 4.23 11.92zm12.793-34.53h8.2v34.72q0 6.54 2.98 9.77 2.98 3.22 9.33 3.22 8.39 0 12.28-4.59 3.88-4.59 3.88-14.99v-28.13h8.1V0h-6.69l-1.17-7.18h-.44q-2.49 3.96-6.91 6.06-4.42 2.1-10.08 2.1-9.77 0-14.62-4.64-4.86-4.64-4.86-14.85v-35.01zM201.17 0h-8.1v-34.81q0-6.4-2.74-9.6-2.73-3.2-8.49-3.2-7.57 0-11.19 4.35-3.61 4.34-3.61 13.38V0h-8.1v-34.81q0-6.4-2.74-9.6-2.73-3.2-8.54-3.2-7.62 0-11.16 4.57-3.54 4.56-3.54 14.96V0h-8.11v-53.52h6.6l1.31 7.33h.39q2.3-3.91 6.47-6.1 4.18-2.2 9.35-2.2 12.55 0 16.41 9.08h.39q2.39-4.2 6.94-6.64 4.54-2.44 10.35-2.44 9.08 0 13.6 4.66 4.51 4.66 4.51 14.92V0zm93.017 0h-8.1v-34.81q0-6.4-2.74-9.6-2.73-3.2-8.49-3.2-7.57 0-11.19 4.35-3.61 4.34-3.61 13.38V0h-8.1v-34.81q0-6.4-2.74-9.6-2.73-3.2-8.54-3.2-7.62 0-11.16 4.57-3.54 4.56-3.54 14.96V0h-8.11v-53.52h6.6l1.31 7.33h.39q2.3-3.91 6.47-6.1 4.18-2.2 9.35-2.2 12.55 0 16.41 9.08h.39q2.39-4.2 6.94-6.64 4.54-2.44 10.35-2.44 9.08 0 13.6 4.66 4.51 4.66 4.51 14.92V0zm55.618 0h-6.01l-1.61-7.62h-.39q-4 5.03-7.98 6.81-3.98 1.79-9.94 1.79-7.96 0-12.47-4.11-4.52-4.1-4.52-11.66 0-16.22 25.93-17l9.08-.29v-3.32q0-6.3-2.71-9.3-2.71-3.01-8.67-3.01-6.69 0-15.13 4.11l-2.49-6.2q3.95-2.15 8.66-3.37 4.71-1.22 9.45-1.22 9.57 0 14.19 4.24 4.61 4.25 4.61 13.63V0zm-24.32-5.71q7.57 0 11.89-4.15t4.32-11.62v-4.84l-8.1.34q-9.67.35-13.94 3.01-4.27 2.66-4.27 8.27 0 4.4 2.66 6.69 2.66 2.3 7.44 2.3zm49.125-47.81V0h-8.11v-53.52h8.11zm-8.79-14.5q0-2.78 1.37-4.07 1.36-1.3 3.42-1.3 1.95 0 3.36 1.32 1.42 1.32 1.42 4.05 0 2.74-1.42 4.08-1.41 1.34-3.36 1.34-2.06 0-3.42-1.34-1.37-1.34-1.37-4.08zm34.083-7.96V0h-8.11v-75.98h8.11z"/></svg>
